<svg viewBox="0 0 14 14" fill="none" xmlns="http://www.w3.org/2000/svg">
<path d="M11.6663 0.333008H2.33301C1.80257 0.333008 1.29387 0.543722 0.918794 0.918794C0.543722 1.29387 0.333008 1.80257 0.333008 2.33301V11.6663C0.333008 12.1968 0.543722 12.7055 0.918794 13.0806C1.29387 13.4556 1.80257 13.6663 2.33301 13.6663H11.6663C12.1968 13.6663 12.7055 13.4556 13.0806 13.0806C13.4556 12.7055 13.6663 12.1968 13.6663 11.6663V2.33301C13.6663 1.80257 13.4556 1.29387 13.0806 0.918794C12.7055 0.543722 12.1968 0.333008 11.6663 0.333008ZM10.8063 4.79301L5.83301 10.0863C5.77027 10.1522 5.69473 10.2044 5.61104 10.24C5.52735 10.2755 5.43727 10.2936 5.34634 10.293C5.25542 10.2936 5.16534 10.2755 5.08164 10.24C4.99795 10.2044 4.92241 10.1522 4.85967 10.0863L3.20634 8.33301C3.13883 8.27113 3.0848 8.196 3.04761 8.11231C3.01041 8.02863 2.99086 7.93818 2.99017 7.8466C2.98948 7.75502 3.00766 7.66429 3.04359 7.58005C3.07951 7.49581 3.1324 7.41988 3.19897 7.35698C3.26554 7.29409 3.34435 7.24558 3.43049 7.21449C3.51663 7.1834 3.60825 7.17039 3.69964 7.17628C3.79103 7.18216 3.88022 7.20681 3.96167 7.24868C4.04311 7.29056 4.11505 7.34877 4.17301 7.41967L5.34634 8.66634L9.83301 3.89301C9.89498 3.83052 9.96872 3.78093 10.05 3.74708C10.1312 3.71323 10.2183 3.69581 10.3063 3.69581C10.3943 3.69581 10.4815 3.71323 10.5627 3.74708C10.644 3.78093 10.7177 3.83052 10.7797 3.89301C10.8958 4.01254 10.963 4.17124 10.9679 4.33783C10.9728 4.50441 10.9152 4.66681 10.8063 4.79301Z" fill="#5B5BEF"/>
</svg>