<svg width="13" height="30" viewBox="0 0 13 30" fill="none" xmlns="http://www.w3.org/2000/svg">
<path d="M5.83389 1.254C5.6145 0.974859 5.66293 0.570716 5.94207 0.351322C6.22122 0.131927 6.62536 0.180363 6.84475 0.459503L5.83389 1.254ZM4.76441 29.9464C4.42703 30.057 4.06388 29.8731 3.9533 29.5357L2.15129 24.0378C2.04071 23.7004 2.22457 23.3373 2.56195 23.2267C2.89933 23.1161 3.26247 23.2999 3.37305 23.6374L4.97485 28.5244L9.86189 26.9227C10.1993 26.8121 10.5624 26.9959 10.673 27.3333C10.7836 27.6707 10.5998 28.0338 10.2623 28.1444L4.76441 29.9464ZM6.84475 0.459503C10.8506 5.55626 11.5947 12.6033 10.0472 18.7515L8.80037 18.4377C10.2779 12.5677 9.53238 5.95968 5.83389 1.254L6.84475 0.459503ZM10.0472 18.7515C9.08091 22.5904 6.83815 26.2673 5.13772 29.6259L3.99065 29.0451C5.76026 25.5499 7.8805 22.0921 8.80037 18.4377L10.0472 18.7515Z" fill="#2A2A2A"/>
</svg>
