<svg width="32" height="32" viewBox="0 0 32 32" fill="none" xmlns="http://www.w3.org/2000/svg">
<circle cx="16" cy="16" r="15.5" stroke="#504C5C"/>
<path d="M10.3856 8.39272L16 14.0071L21.5853 8.42181C21.7087 8.29049 21.8573 8.18544 22.0222 8.11296C22.1872 8.04048 22.3651 8.00206 22.5453 8C22.931 8 23.301 8.15324 23.5738 8.42601C23.8465 8.69879 23.9998 9.06874 23.9998 9.4545C24.0032 9.63283 23.9701 9.80996 23.9025 9.97504C23.835 10.1401 23.7345 10.2897 23.607 10.4145L17.949 15.9998L23.607 21.6578C23.8468 21.8923 23.9873 22.2099 23.9998 22.545C23.9998 22.9308 23.8465 23.3007 23.5738 23.5735C23.301 23.8463 22.931 23.9995 22.5453 23.9995C22.3599 24.0072 22.1749 23.9763 22.0022 23.9087C21.8294 23.8411 21.6726 23.7383 21.5417 23.6068L16 17.9924L10.4002 23.5923C10.2773 23.7192 10.1304 23.8205 9.96818 23.8904C9.80591 23.9603 9.63141 23.9974 9.45474 23.9995C9.06898 23.9995 8.69902 23.8463 8.42625 23.5735C8.15348 23.3007 8.00024 22.9308 8.00024 22.545C7.99685 22.3667 8.02993 22.1896 8.09746 22.0245C8.16499 21.8594 8.26555 21.7099 8.39295 21.5851L14.051 15.9998L8.39295 10.3417C8.15323 10.1072 8.01266 9.78964 8.00024 9.4545C8.00024 9.06874 8.15348 8.69879 8.42625 8.42601C8.69902 8.15324 9.06898 8 9.45474 8C9.80382 8.00436 10.1384 8.14545 10.3856 8.39272Z" fill="#2B2B2B"/>
</svg>
