<svg width="132" height="40" viewBox="0 0 132 40" fill="none" xmlns="http://www.w3.org/2000/svg">
<path d="M49.2892 9.51343C49.2219 8.49797 49.9951 7.62222 51.011 7.56312L126.758 3.15695C127.756 3.09886 128.617 3.85254 128.691 4.85013L130.529 29.5601C130.605 30.5783 129.834 31.4619 128.814 31.5247L52.886 36.1938C51.8794 36.2556 51.012 35.4925 50.9453 34.4863L49.2892 9.51343Z" fill="#FEC830"/>
<path d="M3.5822 34.6013C2.56118 34.6597 1.68995 33.8797 1.63804 32.8584C1.30429 26.292 0.440656 13.0317 0.121215 8.18032C0.0543921 7.16545 0.827066 6.29982 1.84235 6.23956L41.2632 3.89971C41.8679 3.86382 42.4511 4.12908 42.8215 4.60836L52.1455 16.6743C52.6106 17.2762 52.6555 18.1028 52.2582 18.7515L44.4647 31.4764C44.151 31.9884 43.6063 32.3144 43.0068 32.3487L3.5822 34.6013Z" fill="#121920" fill-opacity="0.95"/>
<path d="M10.1914 20.1939C10.1244 19.2906 10.2446 18.3832 10.5446 17.5275C10.8285 16.7055 11.2759 15.9482 11.8603 15.3002C12.4624 14.6445 13.189 14.1125 13.9986 13.7342C14.8649 13.3228 15.8037 13.0816 16.7629 13.0239C17.8647 12.9504 18.8498 13.0463 19.7183 13.3117C20.6063 13.5863 21.4382 14.0143 22.1757 14.5757L20.2267 17.2378C19.7611 16.8921 19.2435 16.6211 18.6927 16.4349C18.1456 16.2661 17.5708 16.2037 16.9998 16.2513C16.5525 16.2733 16.1151 16.3901 15.7172 16.5937C15.3193 16.7972 14.9701 17.0829 14.6932 17.4314C14.0961 18.1556 13.8313 19.013 13.8989 20.0035C13.9707 21.058 14.3625 21.906 15.0742 22.5473C15.786 23.1888 16.6577 23.4745 17.6894 23.4047C18.5323 23.3475 19.2174 23.1145 19.7448 22.7053L19.6342 21.0831L17.0399 21.257L16.8636 18.6684L22.8722 18.2666L23.2706 24.1035C21.7267 25.5324 19.8871 26.3175 17.7519 26.4587C16.4105 26.549 15.1802 26.3449 14.061 25.8463C12.9655 25.369 12.0274 24.5969 11.353 23.6179C10.6669 22.6299 10.2797 21.4885 10.1914 20.1939Z" fill="white"/>
<path d="M26.2003 19.1425C26.1357 18.2446 26.2593 17.3433 26.5634 16.4951C26.8531 15.67 27.303 14.909 27.8877 14.2549C28.4906 13.5937 29.2183 13.0555 30.0298 12.6706C31.7724 11.8428 33.7694 11.7078 35.6096 12.2934C36.4603 12.5639 37.2489 12.9976 37.9304 13.5696C38.5933 14.1387 39.1355 14.8322 39.5257 15.6102C39.9377 16.418 40.1795 17.3004 40.2364 18.2037C40.3003 19.1016 40.177 20.003 39.8739 20.8517C39.5864 21.6774 39.1379 22.4391 38.5539 23.0937C37.953 23.7539 37.2272 24.2911 36.4174 24.6749C35.557 25.0912 34.6221 25.335 33.6662 25.3927C32.3495 25.4809 31.133 25.2622 30.0168 24.7367C28.9316 24.2359 28.0042 23.4528 27.3335 22.4709C26.6597 21.4828 26.2681 20.3328 26.2003 19.1425ZM29.9054 18.8944C29.9701 19.851 30.3412 20.6512 31.0188 21.2951C31.6963 21.9389 32.5178 22.2283 33.483 22.1635C34.4604 22.0985 35.2354 21.7068 35.8082 20.9882C36.381 20.2697 36.6342 19.4234 36.5678 18.4492C36.5026 17.4926 36.1315 16.6924 35.4544 16.0486C34.7773 15.4048 33.9489 15.1155 32.969 15.1809C32.0041 15.2454 31.2352 15.6369 30.6625 16.3554C30.0898 17.074 29.8374 17.9203 29.9054 18.8944Z" fill="white"/>
<path d="M60.6501 28.1375L59.7681 15.2158L63.3822 14.9746L64.2673 27.8962L60.6501 28.1375Z" fill="white"/>
<path d="M65.4588 17.9949L65.2441 14.849L76.6966 14.0835L76.9112 17.2288L72.989 17.4897L73.6564 27.2691L70.0422 27.5104L69.3748 17.731L65.4588 17.9949Z" fill="white"/>
<path d="M76.6684 22.0602C76.6168 21.3611 76.6978 20.6587 76.9071 19.989C77.0997 19.3573 77.4149 18.7689 77.8349 18.2565C78.2591 17.7509 78.7835 17.3368 79.3757 17.0397C80.0051 16.7205 80.6944 16.5341 81.4002 16.4922C82.244 16.4359 83.0068 16.5314 83.6888 16.7789C84.3318 17.0019 84.9099 17.3774 85.3725 17.8726C85.8198 18.3632 86.173 18.9303 86.4148 19.5463C86.6754 20.2115 86.8297 20.913 86.8718 21.6254C86.8941 21.9439 86.904 22.1845 86.9034 22.3474L80.1483 22.7987C80.3252 23.3364 80.6139 23.7353 81.0143 23.9953C81.4146 24.2554 81.8932 24.3667 82.4499 24.3292C83.2351 24.2748 83.9575 23.8782 84.6173 23.1392L86.6851 24.6273C85.702 26.0384 84.2849 26.8057 82.4338 26.9294C81.3839 27 80.4355 26.8463 79.5885 26.4682C78.7562 26.1042 78.0475 25.5103 77.5473 24.7578C77.0314 23.9935 76.7385 23.0944 76.6684 22.0602ZM79.9714 21.0069L83.4761 20.7723C83.3709 20.2179 83.1528 19.7892 82.8216 19.4863C82.4905 19.1833 82.0849 19.0476 81.605 19.079C81.3885 19.0896 81.1769 19.1457 80.9841 19.2436C80.7912 19.3414 80.6217 19.4789 80.4866 19.6467C80.1968 19.9945 80.025 20.448 79.9714 21.0069Z" fill="white"/>
<path d="M88.1347 21.2941C88.0832 20.5949 88.164 19.8922 88.3728 19.2224C88.5657 18.5907 88.8809 18.0023 89.3006 17.4899C89.725 16.9846 90.2491 16.5705 90.8408 16.273C91.4703 15.9538 92.1601 15.7675 92.8664 15.7261C93.7101 15.6698 94.4723 15.7652 95.1548 16.0121C95.7979 16.2345 96.3759 16.6093 96.8385 17.104C97.2865 17.5943 97.6392 18.1613 97.881 18.7772C98.1421 19.4435 98.296 20.146 98.3382 20.8593C98.3602 21.1778 98.3702 21.4184 98.3693 21.5813L91.615 22.0333C91.7918 22.5706 92.0804 22.9693 92.4807 23.2293C92.8811 23.4894 93.3592 23.6008 93.9162 23.5637C94.705 23.5102 95.4278 23.1132 96.0846 22.3725L98.1531 23.8607C97.1692 25.2716 95.7521 26.039 93.9016 26.1627C92.8508 26.2333 91.9027 26.0796 91.0561 25.7016C90.2239 25.3374 89.5152 24.7436 89.0149 23.9911C88.4986 23.2269 88.2052 22.3278 88.1347 21.2941ZM91.4378 20.2401L94.9422 20.0056C94.8369 19.4516 94.6189 19.0229 94.2872 18.7195C93.9556 18.4162 93.5507 18.2805 93.0707 18.3123C92.8545 18.3229 92.6429 18.3791 92.4496 18.477C92.2572 18.5751 92.0877 18.7127 91.9531 18.8806C91.6627 19.2292 91.4905 19.6824 91.4378 20.2401Z" fill="white"/>
<path d="M100.351 25.4839L99.6699 15.4975L103.211 15.2605L103.308 16.6751C104.097 15.5238 105.067 14.9098 106.214 14.8331C107.283 14.7612 108.144 15.0325 108.799 15.6469C109.454 16.2613 109.82 17.1391 109.898 18.2802L110.343 24.8152L106.803 25.0516L106.431 19.6575C106.395 19.1239 106.237 18.7206 105.959 18.4474C105.679 18.1743 105.325 18.0518 104.893 18.08C104.448 18.1102 104.098 18.281 103.845 18.5926C103.592 18.9041 103.483 19.3238 103.517 19.8517L103.886 25.2457L100.351 25.4839Z" fill="white"/>
<path d="M111.5 23.4365L112.684 21.2239C113.9 21.8878 115.082 22.1813 116.229 22.1045C116.823 22.0638 117.108 21.8596 117.083 21.4921C117.071 21.317 116.94 21.1805 116.69 21.0824C116.44 20.9844 116.009 20.8797 115.406 20.7677C114.948 20.6811 114.558 20.5958 114.235 20.5117C113.895 20.4212 113.563 20.3021 113.242 20.1559C112.941 20.0269 112.663 19.8523 112.416 19.6384C112.191 19.4284 112.008 19.178 111.877 18.9004C111.722 18.5774 111.633 18.2274 111.615 17.8704C111.542 16.8129 111.858 15.9642 112.565 15.324C113.272 14.6839 114.225 14.3238 115.427 14.2438C116.174 14.1944 116.923 14.2513 117.653 14.4128C118.361 14.5622 119.041 14.8164 119.671 15.1667L118.612 17.473C118.088 17.2392 117.543 17.056 116.984 16.9261C116.439 16.8011 115.966 16.7521 115.566 16.7791C115.298 16.7966 115.098 16.854 114.965 16.9512C114.901 16.9923 114.851 17.0496 114.819 17.1167C114.786 17.1839 114.772 17.2584 114.779 17.3327C114.791 17.5087 114.921 17.6452 115.168 17.7424C115.415 17.8396 115.851 17.9558 116.477 18.0909C116.934 18.1831 117.324 18.2744 117.648 18.3646C117.988 18.4618 118.32 18.5847 118.642 18.7321C118.942 18.8606 119.222 19.035 119.468 19.2489C119.691 19.4557 119.874 19.7015 120.007 19.974C120.161 20.2865 120.249 20.6264 120.267 20.9734C120.341 22.0643 120.029 22.927 119.328 23.5615C118.628 24.1959 117.646 24.5554 116.384 24.6399C114.581 24.7595 112.953 24.3584 111.5 23.4365Z" fill="white"/>
</svg>
