<svg width="24" height="24" viewBox="0 0 24 24" fill="none" xmlns="http://www.w3.org/2000/svg">
<path d="M1.29384 3.50634C1.01852 3.48498 0.812646 3.24448 0.834001 2.96917C0.855355 2.69385 1.09585 2.48798 1.37117 2.50933L1.29384 3.50634ZM15.3099 11.9938L14.8919 12.2681L15.3099 11.9938ZM20.0261 22.2123C19.9118 22.4637 19.6153 22.5748 19.364 22.4605L15.2676 20.5977C15.0163 20.4834 14.9052 20.1869 15.0195 19.9356C15.1338 19.6842 15.4302 19.5731 15.6816 19.6874L19.3228 21.3432L20.9786 17.7021C21.0929 17.4507 21.3894 17.3396 21.6408 17.4539C21.8921 17.5682 22.0032 17.8646 21.8889 18.116L20.0261 22.2123ZM1.37117 2.50933C7.30031 2.96921 12.5293 6.84454 15.728 11.7195L14.8919 12.2681C11.8157 7.57973 6.83726 3.9363 1.29384 3.50634L1.37117 2.50933ZM15.728 11.7195C17.7247 14.7626 18.8159 18.566 20.0391 21.8299L19.1028 22.1808C17.8377 18.8055 16.8075 15.1876 14.8919 12.2681L15.728 11.7195Z" fill="#2A2A2A"/>
</svg>
