<svg width="24" height="25" viewBox="0 0 24 25" fill="none" xmlns="http://www.w3.org/2000/svg">
<path d="M11.3659 1.03662C11.1846 0.805942 11.2246 0.471963 11.4553 0.290658C11.686 0.109352 12.0199 0.149378 12.2012 0.380058L11.3659 1.03662ZM14.3325 15.3667L13.8173 15.237L14.3325 15.3667ZM10.4821 24.7477C10.2033 24.8391 9.90317 24.6871 9.81178 24.4083L8.32262 19.8649C8.23124 19.5861 8.38318 19.286 8.66198 19.1946C8.94079 19.1032 9.24089 19.2552 9.33227 19.534L10.656 23.5726L14.6946 22.2489C14.9734 22.1575 15.2735 22.3094 15.3649 22.5882C15.4562 22.8671 15.3043 23.1672 15.0255 23.2585L10.4821 24.7477ZM12.2012 0.380058C15.5116 4.59196 16.1266 10.4156 14.8477 15.4964L13.8173 15.237C15.0384 10.3862 14.4223 4.92534 11.3659 1.03662L12.2012 0.380058ZM14.8477 15.4964C14.0492 18.6688 12.1958 21.7073 10.7906 24.4828L9.84265 24.0029C11.305 21.1145 13.0572 18.257 13.8173 15.237L14.8477 15.4964Z" fill="#2A2A2A"/>
</svg>
