<svg xmlns="http://www.w3.org/2000/svg" width="22" height="22" fill="none"><g filter="url(#a)"><path fill="#66F894" d="M10.062 1.534c.322-.87 1.554-.87 1.876 0L13 4.409a1 1 0 0 0 .591.59l2.873 1.064c.871.322.871 1.554 0 1.876L13.592 9a1 1 0 0 0-.59.591l-1.064 2.873c-.322.871-1.554.871-1.876 0L9 9.593a1 1 0 0 0-.591-.59L5.535 7.937c-.871-.322-.871-1.554 0-1.876L8.408 5a1 1 0 0 0 .59-.591l1.064-2.874Z"/></g><defs><filter id="a" width="20.236" height="20.238" x=".882" y=".881" color-interpolation-filters="sRGB" filterUnits="userSpaceOnUse"><feFlood flood-opacity="0" result="BackgroundImageFix"/><feColorMatrix in="SourceAlpha" result="hardAlpha" values="0 0 0 0 0 0 0 0 0 0 0 0 0 0 0 0 0 0 127 0"/><feOffset dy="4"/><feGaussianBlur stdDeviation="2"/><feComposite in2="hardAlpha" operator="out"/><feColorMatrix values="0 0 0 0 0.4 0 0 0 0 0.972549 0 0 0 0 0.580392 0 0 0 0.25 0"/><feBlend in2="BackgroundImageFix" result="effect1_dropShadow_15_672"/><feBlend in="SourceGraphic" in2="effect1_dropShadow_15_672" result="shape"/></filter></defs></svg>