<svg width="64" height="64" viewBox="0 0 64 64" fill="none" xmlns="http://www.w3.org/2000/svg">
<path d="M37.529 1.38309L45.4759 8.8239L55.8933 11.9857L57.1982 22.7939L63.1459 31.9121L57.1982 41.0304L55.8933 51.8386L45.4759 55.0004L37.529 62.4412L27.5165 58.1671L16.6459 58.7589L11.7232 49.0489L3.01547 42.5148L5.48595 31.9121L3.01547 21.3095L11.7232 14.7754L16.6459 5.06535L27.5165 5.65716L37.529 1.38309Z" fill="#5B5BEF"/>
<path d="M13.6904 29.1056L14.1023 26.7694L19.0308 27.6384L18.6189 29.9747L13.6904 29.1056ZM18.7375 33.9059L19.0817 31.9537L23.349 29.5548C24.1923 29.0765 24.7846 28.6805 25.1259 28.3667C25.4691 28.0422 25.6802 27.656 25.7592 27.2079C25.8401 26.7492 25.7644 26.3674 25.5322 26.0624C25.3 25.7575 24.9599 25.5655 24.5118 25.4865C24.0958 25.4132 23.6964 25.4638 23.3137 25.6382C22.9435 25.804 22.4917 26.1203 21.9584 26.5872L20.4757 24.8904C21.2035 24.1937 21.9097 23.7133 22.5942 23.449C23.2895 23.1866 24.1118 23.1391 25.0612 23.3065C26.224 23.5116 27.101 23.9962 27.6922 24.7604C28.2853 25.5139 28.4887 26.4188 28.3025 27.4749C28.1953 28.0829 27.9811 28.6116 27.6599 29.061C27.3405 29.4996 26.9613 29.8727 26.5221 30.1803C26.0847 30.4771 25.4419 30.8478 24.5936 31.2921L22.5211 32.3786L27.4016 33.2392L27.0263 35.3674L18.7375 33.9059ZM28.3891 35.6077L34.9974 27.4179L29.7329 26.4896L30.1081 24.3614L38.1729 25.7835L37.8456 27.6397L31.1734 36.0986L28.3891 35.6077ZM42.6789 31.4947C42.069 31.9592 41.3641 32.1208 40.564 31.9798C39.7639 31.8387 39.1611 31.4519 38.7557 30.8195C38.3521 30.1763 38.2218 29.4494 38.3648 28.6386C38.5077 27.8279 38.8832 27.1956 39.4912 26.7419C40.101 26.2774 40.806 26.1158 41.6061 26.2568C42.4062 26.3979 43.008 26.79 43.4116 27.4331C43.817 28.0656 43.9483 28.7872 43.8053 29.598C43.6642 30.398 43.2888 31.0303 42.6789 31.4947ZM37.9923 37.301L48.1442 27.5417L50.0484 27.8774L39.8965 37.6367L37.9923 37.301ZM48.5495 38.4365C47.9396 38.901 47.2346 39.0627 46.4346 38.9216C45.6345 38.7805 45.0317 38.3937 44.6263 37.7613C44.2227 37.1181 44.0924 36.3912 44.2353 35.5805C44.3783 34.7697 44.7538 34.1375 45.3618 33.6837C45.9716 33.2193 46.6766 33.0576 47.4767 33.1987C48.2767 33.3397 48.8786 33.7318 49.2821 34.375C49.6876 35.0074 49.8188 35.729 49.6759 36.5398C49.5348 37.3399 49.1593 37.9721 48.5495 38.4365ZM40.8527 30.5293C41.1728 30.5857 41.447 30.4966 41.6754 30.2618C41.9056 30.0165 42.0555 29.6964 42.1251 29.3017C42.1929 28.9177 42.1498 28.5691 41.996 28.256C41.8529 27.9448 41.6267 27.7619 41.3173 27.7073C40.9973 27.6509 40.7231 27.7401 40.4947 27.9748C40.2663 28.2095 40.1164 28.5295 40.0449 28.9349C39.9772 29.3189 40.0149 29.6666 40.158 29.9778C40.3118 30.2909 40.5434 30.4747 40.8527 30.5293ZM46.7233 37.4711C47.0434 37.5275 47.3176 37.4384 47.5459 37.2037C47.7762 36.9583 47.9261 36.6382 47.9957 36.2435C48.0634 35.8595 48.0204 35.5109 47.8666 35.1978C47.7235 34.8866 47.4973 34.7037 47.1879 34.6492C46.8679 34.5927 46.5937 34.6819 46.3653 34.9166C46.1369 35.1513 45.987 35.4713 45.9155 35.8767C45.8478 36.2608 45.8855 36.6084 46.0286 36.9196C46.1824 37.2327 46.414 37.4165 46.7233 37.4711Z" fill="white"/>
</svg>
